<svg height="2592pt" preserveAspectRatio="xMidYMid meet" viewBox="0 0 2592 2592" width="2592pt" xmlns="http://www.w3.org/2000/svg"><g transform="matrix(.1 0 0 -.1 0 2592)"><path d="m4898 16598c-124-200-361-582-527-849-198-319-301-495-301-513 0-19 7-29 26-36 16-6 429-10 1110-10h1085l25-26 26-25-3-1999-4-1998-24-26-24-26h-1477c-1259 0-1479 2-1496 14-19 14-19 43-24 1430-4 1121-8 1418-18 1428s-17 7-36-12c-13-14-300-466-637-1005-336-539-1009-1614-1494-2390-485-775-894-1431-909-1458-24-40-27-54-21-92l6-45h4108 4108l7 3848c3 2116 9 3916 12 4000l6 152h-1650-1650z"/><path d="m9460 12960v-4000h3590 3590l17 27c17 26 18 172 25 2878 4 1567 9 3355 10 3973l3 1122h-3617-3618zm5118 2224 22-15v-2028c0-1696-2-2030-14-2040-10-8-418-10-1532-9l-1519 3-3 2043-2 2043 22 9c14 5 649 9 1513 9 1334 1 1493-1 1513-15z"/><path d="m17740 12960v-4000h4090 4090v140 139l-459 703c-253 387-514 787-581 889-66 103-131 195-143 206-55 51 97 48-2480 53l-2409 5-19 24c-18 22-19 45-19 463v439l23 23 23 23 830 7c456 3 1380 9 2054 12 739 3 1237 9 1256 15 37 11 46 35 29 75-7 16-97 166-202 334-104 168-369 594-589 948-219 354-412 657-428 673-17 17-48 40-70 52l-41 22-1412-4-1412-4-29 29-29 29-6 220c-4 121-7 324-7 451 0 222 1 232 21 250s58 19 1133 24c611 3 1112 6 1114 8 1 1 2 16 2 33 0 23-127 234-527 875l-528 844h-1637-1638z"/></g></svg>