<svg xmlns="http://www.w3.org/2000/svg" viewBox="220 380 180 40">
  <g fill-rule="evenodd" clip-rule="evenodd">
    <path d="M222.624 406.525v-1.721c1.986 0 2.251-.795 2.251-2.385v-11.783c0-1.589-.133-2.383-2.251-2.383v-1.589c.132-.132 4.634-.265 6.752-.265 3.708 0 5.958.265 7.944 1.986 2.251 1.854 3.443 4.767 3.443 8.209 0 4.501-1.986 7.679-4.899 9.003-1.457.662-2.913.928-7.15.928h-6.09zm6.62-4.634c0 1.854 0 2.781 1.986 2.781 3.575 0 4.635-3.84 4.635-8.077 0-8.474-4.502-8.474-6.621-8.474v13.77z"/>
    <path d="m242.22 401.891-.265.795c-.133.529-.265.928-.265 1.324 0 1.059.794 1.059 1.457 1.059v1.457h-4.634v-1.457c1.06 0 1.854-1.721 2.119-2.779L245 389.18h1.192l4.501 13.109c.397 1.324.927 2.779 2.251 2.779v1.457h-7.017v-1.457c.529 0 1.324 0 1.324-.795 0-.264-.132-.793-.132-.793s-.133-.266-.133-.398l-.397-1.191h-4.369zm2.118-6.488-1.721 5.031h3.443l-1.722-5.031zm12.182 11.388-4.767-13.109c-.132 0-.132-.265-.265-.397-.663-1.986-.927-2.516-2.384-2.516v-1.324h7.547v1.324c-1.324 0-1.589.529-1.589.927 0 .53.265 1.191.397 1.721l2.913 7.679 2.781-7.679c.132-.397.265-1.059.265-1.457 0-1.059-1.059-1.191-1.589-1.191v-1.324h5.031v1.324c-1.324 0-1.588.397-2.78 3.972l-4.237 12.05h-1.323z"/>
    <path d="M266.053 392.887c0-1.324-.265-2.118-1.986-2.118v-1.324h7.547v1.324c-1.721 0-1.986.662-1.986 2.118v10.064c0 1.455.265 1.984 1.986 1.984v1.457h-7.547v-1.457c1.722 0 1.986-.529 1.986-1.984v-10.064zm6.753 13.506v-1.457c1.588 0 1.854-.662 1.854-1.984v-10.064c0-1.324-.132-2.118-1.854-2.118v-1.324s3.839-.132 5.693-.132c3.045 0 5.031.132 6.753 1.721 1.854 1.589 2.913 3.972 2.913 7.017 0 3.707-1.721 6.488-4.237 7.68-1.192.529-2.383.662-6.091.662h-5.031v-.001zm5.561-3.973c0 1.59 0 2.385 1.721 2.385 3.045 0 3.84-3.178 3.84-6.754 0-7.282-3.708-7.282-5.561-7.282v11.651zm17.478-9.665c0 1.457.794 1.854 3.442 3.311 1.589.927 3.84 2.251 3.84 5.562 0 3.309-2.383 5.295-4.634 5.295a4.813 4.813 0 0 1-3.84-1.986c-.265.531-.265 1.061-.397 1.324h-1.191v-5.826h1.191c.265 1.061 1.059 4.768 3.84 4.768 1.324 0 1.986-1.059 1.986-2.119 0-1.324-1.191-1.986-1.986-2.516-3.31-2.117-5.031-3.045-5.031-6.222 0-3.311 2.25-5.032 4.237-5.032.927 0 2.118.397 3.045 1.457.265-.265.265-.397.397-1.192h1.192v5.032h-1.192c-.397-2.383-1.721-3.84-3.045-3.84-1.457-.002-1.854 1.189-1.854 1.984zm70.043 8.739-.265.926c-.133.531-.265.928-.265 1.193 0 1.191.794 1.191 1.456 1.191v1.324h-4.634v-1.324c1.059 0 1.854-1.723 2.118-2.781l4.369-13.108h1.192l4.502 13.108c.396 1.191.927 2.781 2.118 2.781v1.324h-6.886v-1.324c.53 0 1.324 0 1.324-.795 0-.396-.132-.795-.132-.795 0-.133-.133-.396-.133-.396l-.396-1.324h-4.368zm2.119-6.488-1.722 5.164h3.442l-1.72-5.164zm-19.73 11.123v-1.324c1.722 0 1.854-.662 1.854-2.119v-10.063c0-1.324-.133-1.986-1.854-1.986v-1.457c.133 0 3.973-.133 5.693-.133 3.179 0 5.032.133 6.753 1.722 1.854 1.589 2.913 4.104 2.913 7.018 0 3.707-1.721 6.486-4.237 7.68-1.059.529-2.383.662-6.09.662h-5.032zm5.562-3.973c0 1.588 0 2.516 1.722 2.516 3.045 0 3.839-3.311 3.839-6.885 0-7.283-3.707-7.283-5.561-7.283v11.652zm-12.049-9.533c0-1.324-.133-1.986-1.854-1.986v-1.457h7.415v1.457c-1.721 0-1.854.529-1.854 1.986v10.063c0 1.457.133 2.119 1.854 2.119v1.324h-7.415v-1.324c1.59 0 1.854-.662 1.854-2.119v-10.063z"/>
    <path d="M336.097 406.129c-.662-1.061-1.191-2.119-2.648-5.164-1.06-2.252-1.191-2.252-2.913-2.252v3.973c0 1.457.133 2.119 1.854 2.119v1.324h-7.547v-1.324c1.722 0 1.986-.531 1.986-2.119v-10.063c0-1.589-.265-1.986-1.986-1.986v-1.457h7.547c.662 0 1.722 0 2.648.265 2.516.794 3.045 3.045 3.045 4.237 0 .663-.132 3.045-2.912 4.105.794.793 1.589 2.25 2.383 3.707.795 1.457 1.589 2.912 2.383 3.178.397 0 .397.133.53.133v1.324h-4.37zm-5.562-9.004h.53c1.323 0 3.177 0 3.177-3.311 0-3.045-1.721-3.177-3.707-3.177v6.488zm57.597 3.309v5.695h-12.843v-1.324c1.721 0 1.854-.662 1.854-2.119v-10.063c0-1.457-.133-1.986-1.854-1.986v-1.457h7.547v1.457c-1.722 0-1.986.397-1.986 1.986v9.667c0 1.588 0 2.383 2.251 2.383.927 0 3.311 0 3.973-4.238h1.058v-.001zm-79.576 5.695v-1.59c1.986 0 2.118-.795 2.118-2.383v-11.785c0-1.457-.132-2.383-2.118-2.383v-1.589c1.324 0 5.562-.265 6.355-.265 1.06 0 3.178 0 4.502.265 2.251.53 3.84 1.986 3.84 4.502 0 3.31-3.046 4.369-4.104 4.634v.133c1.059.132 4.898.927 4.898 5.297 0 5.164-5.296 5.164-6.752 5.164h-8.739zm7.282-11.388c1.986 0 2.648-1.06 2.648-3.443 0-3.442-1.986-3.442-3.442-3.442v6.885h.794zm-.794 7.415c0 .795 0 2.25 1.854 2.25 1.986 0 2.384-2.25 2.384-3.973 0-3.971-1.854-3.971-3.443-3.971h-.794v5.694h-.001zM287.9 391.96c-1.589-1.456-1.986-2.648-1.986-2.648-.662-1.324 0-2.383 0-2.383.397-.662 1.324-1.06 1.324-1.06.662-.132 1.457.133 1.457.133a8.1 8.1 0 0 1 1.059.662 3.841 3.841 0 0 1 1.721-.795c1.192-.132 1.986.795 1.986.795.794.794.529 1.986.529 1.986-.397 1.324-1.854 2.78-1.854 2.78-.53.795-2.383 2.383-2.383 2.383-.528-.396-1.853-1.853-1.853-1.853zm3.443-4.634a1.799 1.799 0 0 1 1.192 1.06c.397.794.132 1.721.132 1.721.53-.794.53-1.457.53-1.457 0-.53-.132-1.06-.132-1.06-.265-.529-.795-.662-.795-.662-.397-.265-1.059 0-1.059 0-.265 0-.927.397-.927.397a2.477 2.477 0 0 1 1.059.001z"/>
  </g>
</svg>
