<svg xmlns="http://www.w3.org/2000/svg" width="1200" height="800" viewBox="-5.34819 -2.51095 46.35098 15.0657"><g fill-rule="evenodd"><path d="M35.1412 5.663c-.2692-.2044-.5946-.2927-.9121-.3787l-.0353-.009c-.3292-.0924-.5238-.178-.651-.2867-.129-.1107-.1915-.2572-.202-.4743-.004-.0994.009-.1949.041-.2834a.6607.6607 0 01.1427-.2316c.0705-.0746.1591-.1333.2626-.1743.1078-.0423.2282-.0637.3612-.0637a.8566.8566 0 01.32.0504c.0932.034.1735.0835.2385.1473a.6417.6417 0 01.1454.2276c.0361.0944.0552.2027.057.3222l.004.2118h.6142l-.003-.2188c-.007-.3906-.1419-.7248-.3912-.9662-.2467-.2394-.5884-.3685-.9904-.3741-.3672 0-.7086.1158-.9617.3262-.297.2474-.4542.6066-.4542 1.0422.014.4192.1515.7187.4328.942.2503.2.5962.3108.9356.4089.3537.0782.587.183.734.3302.1358.136.202.3197.209.577l.0006.0305a.9234.9234 0 01-.0631.342.8473.8473 0 01-.1793.2796.8364.8364 0 01-.2867.1921c-.113.0453-.2365.0682-.3667.0682-.284 0-.5243-.0883-.6951-.255-.17-.166-.2623-.4014-.2674-.6815l-.004-.2124-.604.003-.0111.2727c0 .183.0324.3592.0966.5245a1.407 1.407 0 00.2834.447c.1468.1564.3337.2846.5407.3708.2049.085.4333.13.6604.13a1.571 1.571 0 00.6121-.122 1.4815 1.4815 0 00.5041-.3507 1.4413 1.4413 0 00.3091-.5018 1.4648 1.4648 0 00.0842-.5857c-.0252-.4832-.1926-.8356-.5113-1.0767M32.754 0l-.2474.7586h-.8008l.6487.4704-.2427.758.6405-.4683.6445.47-.2457-.7603.647-.4698h-.7993zm-2.6504 7.2027l-1.6077-4.0413h-.6671l.1724.4371c.0141.036.458 1.1597.8991 2.274l.8493 2.1459-.8865 2.0254h.6848l2.772-6.4408.178-.4416H31.81zm-6.0939-2.8813c.2287-.205.437-.3407.6557-.4279.217-.0866.4553-.1288.7706-.1327.3506 0 .7109.1023 1.0145.2883.3534.2169.6152.5389.7564.9311l.051.1426h.6613l-.1007-.2865c-.196-.5578-.5615-1.008-1.057-1.3022-.404-.2402-.8864-.3727-1.3582-.3727-.7065 0-1.357.2625-1.8315.7393-.4753.4763-.737 1.1294-.737 1.8383 0 .6525.2423 1.2922.6648 1.7548.4813.5272 1.1544.806 1.9458.806.5296 0 1.0321-.1532 1.4532-.4428.4209-.2906.7358-.7013.9108-1.1877l.104-.2884h-.6667l-.0492.1457c-.1007.2933-.3206.5811-.6037.7897-.3354.2472-.7473.3799-1.1905.3835a2.0292 2.0292 0 01-.7476-.1405 1.9107 1.9107 0 01-.6249-.404 1.8706 1.8706 0 01-.4308-.638c-.0996-.2438-.1502-.5088-.1502-.787 0-.2705.054-.5472.156-.8002.1-.2488.2399-.4595.404-.6087m-2.3981-1.1601v.8433a2.393 2.393 0 00-.4583-.4011c-.4295-.2893-.9372-.4421-1.469-.4421-.9743 0-1.576.4465-1.9092.8207-.4186.4684-.6587 1.1056-.6587 1.7483 0 .642.2398 1.279.658 1.7479.3335.3746.9356.8212 1.91.8212.505 0 .9606-.1209 1.3537-.3592.2157-.131.4075-.295.5735-.4893v.8478h.6151V3.1613zm.002 2.8982a1.7666 1.7666 0 01-.0941.3535c-.1377.391-.3784.717-.6953.942-.3179.2257-.7035.3448-1.1146.3448-.6007 0-1.109-.2115-1.4698-.6115-.3195-.3544-.5052-.8496-.5091-1.3579 0-.5453.1982-1.0452.558-1.4077.3594-.3624.8549-.5617 1.3954-.5617.4022 0 .7858.1134 1.109.3276a1.856 1.856 0 01.706.8766c.0449.1063.0792.2205.1026.3393.0233.1194.0352.2467.0352.3823a1.855 1.855 0 01-.0233.3727zm-5.6806-2.3892c-.1693-.1698-.3727-.299-.6046-.3837-.4472-.1638-1.0595-.1775-1.5675.0368-.2543.1072-.479.265-.65.4555a1.7828 1.7828 0 00-.1866.2435c-.063-.1105-.1177-.1904-.161-.236-.1694-.2028-.385-.36-.6415-.4671-.2512-.1047-.5316-.1578-.8341-.1578-.1913 0-.4841.0298-.7932.1716a1.7764 1.7764 0 00-.537.3806v-.5524h-.6151v5.1375h.6151V5.4137c0-.281.0305-.5156.0935-.7174a1.391 1.391 0 01.2867-.5144c.0972-.1275.2385-.2358.4084-.313.176-.079.3625-.1176.5357-.108.2404.008.4511.0522.6265.1318.1702.0774.3129.1896.423.3318.1039.1391.1666.2608.2099.407.0536.178.0786.3972.0786.6892l-.002 2.978h.6148V5.4563c0-.3064.01-.5509.0577-.7479.0423-.174.1177-.3232.2532-.4991.1141-.149.2734-.2648.4744-.344.3592-.1426.7958-.1262 1.09-.0185.1483.054.2757.136.3803.2447.1319.1325.2324.3087.2987.5239.0708.2294.1067.5122.1067.8409v2.8425h.6145V5.4562c0-.395-.0466-.744-.1383-1.0375-.0962-.307-.2437-.5589-.4371-.7484"/><path fill="#e11a2b" d="M6.031 5.1217l2.6953-1.96H5.3951L4.368 0 3.3419 3.1618H0l2.7073 1.9651-1.0255 3.1628 2.682-1.9569 2.698 1.966z"/></g></svg>