<svg viewBox="496.238 307.076 22.792 14.096" xmlns="http://www.w3.org/2000/svg"><path d="m496.238 307.076c2.598-.001 5.195-.002 7.793.001.887.941 1.779 1.877 2.671 2.813.884-.943 1.782-1.874 2.668-2.814h7.836c.001 1.932-.001 3.863.001 5.796-.006.088.019.186-.024.268a18.415 18.415 0 0 0 -1.632 3.341c-.054.126-.104.271-.226.348-.104.044-.257.025-.313-.085-.074-.139-.07-.301-.091-.453-.068-.589-.13-1.181-.227-1.767-.058-.299-.124-.622-.347-.847-.209-.204-.529-.224-.801-.158a.919.919 0 0 0 -.611.431c-.164.281-.162.622-.103.933.103.545.287 1.07.475 1.591.372.982.749 1.964 1.122 2.945.093.251.24.51.497.623.221.093.471.092.705.058a.686.686 0 0 0 .479-.341c.188-.32.261-.689.372-1.04.222-.716.435-1.438.721-2.132.006 1.528 0 3.057.002 4.585l-4.892.001c-.066-.568-.114-1.141-.084-1.712.007-.558.03-1.113.024-1.671.017-.809-.088-1.611-.134-2.418-.052-.626.016-1.256-.04-1.882.463-.29.946-.545 1.412-.83.313-.194.649-.361.917-.619.148-.144.263-.364.174-.57-.188-.382-.683-.589-1.082-.421-.327.15-.521.477-.819.667-.372.23-.747.456-1.129.671a1.26 1.26 0 0 0 -.948-.103.62.62 0 0 0 -.395.34c-.08.186-.013.39-.049.581-.023.118-.115.202-.215.258-.422.25-.848.494-1.269.746-.433.253-.853.544-1.34.685-.296.087-.643.187-.786.489-.137.294.025.632.254.828.197.188.498.228.75.139.329-.108.6-.336.873-.54.34-.26.688-.508 1.036-.757.188-.129.377-.27.598-.339.15-.056.339.009.402.161.149.334.102.712.109 1.068.009 1.188-.1 2.372-.141 3.559-.003.557-.008 1.113.018 1.67-.432-.002-.863.004-1.295-.004.004-1.314.003-2.629.001-3.943-.82.689-1.639 1.381-2.458 2.07-.821-.688-1.639-1.38-2.458-2.068-.002 1.314-.001 2.63 0 3.944-2.668.002-5.337.001-8.004 0 .003-4.699.003-9.397.003-14.096z"/><path d="m504.764 307.078c.791.343 1.577.693 2.367 1.037.12.05.197.158.287.246-.235.258-.483.504-.718.763-.644-.683-1.297-1.357-1.936-2.046zm12.969-.009c.433.26.867.518 1.297.781-.003.957-.001 1.915-.001 2.873a18.392 18.392 0 0 0 -1.294 1.598c-.005-1.75-.001-3.501-.002-5.252zm.098 8.175c.354-.661.75-1.302 1.196-1.905.002 2.611 0 5.222.001 7.832h-1.296c-.001-1.873.001-3.747-.001-5.621-.01-.111.05-.21.1-.306zm-13.063 3.12c.358.297.71.604 1.072.896.007.637.002 1.274.003 1.912h-1.075zm2.709.971 1.145-.964c-.003.259.004.518-.005.775-.08.063-.158.126-.235.191-.303.001-.603.004-.905-.002z"/></svg>