<?xml version="1.0" encoding="UTF-8" standalone="no"?>
<svg
   version="1.1"
   width="518.23071"
   height="380.62604"
   viewBox="0 0 518.23071 380.62604"
   id="svg1223"
   sodipodi:docname="sgc.svg"
   xmlns:inkscape="http://www.inkscape.org/namespaces/inkscape"
   xmlns:sodipodi="http://sodipodi.sourceforge.net/DTD/sodipodi-0.dtd"
   xmlns="http://www.w3.org/2000/svg"
   xmlns:svg="http://www.w3.org/2000/svg">
  <sodipodi:namedview
     id="namedview1225"
     pagecolor="#505050"
     bordercolor="#ffffff"
     borderopacity="1"
     inkscape:showpageshadow="0"
     inkscape:pageopacity="0"
     inkscape:pagecheckerboard="1"
     inkscape:deskcolor="#505050"
     showgrid="false" />
  <defs
     id="defs1210">
    <clipPath
       id="clip_0">
      <path
         transform="matrix(1,0,0,-1,0,792)"
         d="M 0,792 H 612 V 0 H 0 Z"
         id="path1207" />
    </clipPath>
  </defs>
  <g
     id="layer_1"
     data-name="Layer 1"
     transform="translate(-53.166901,-157.8326)">
    <g
       clip-path="url(#clip_0)"
       id="g1220">
      <path
         transform="matrix(1,0,0,-1,433.7969,348.1436)"
         d="m 0,0 c 0,-105.116 -85.203,-190.315 -190.315,-190.315 -105.108,0 -190.315,85.199 -190.315,190.315 0,105.108 85.207,190.311 190.315,190.311 C -85.203,190.311 0,105.108 0,0"
         fill="#43aee3"
         id="path1212" />
      <path
         transform="matrix(1,0,0,-1,485.7666,477.6904)"
         d="m 0,0 c -66.652,0 -108.319,42.12 -108.319,123.121 0,80.081 42.583,127.752 114.335,127.752 29.619,0 49.988,-8.787 73.585,-28.23 L 42.575,174.04 c -9.266,9.719 -22.68,17.589 -33.788,17.589 -18.972,0 -29.154,-10.179 -29.154,-63.411 0,-48.606 5.084,-68.504 28.222,-68.504 18.062,0 32.874,8.793 43.988,21.284 L 85.631,33.792 C 60.172,8.332 29.147,0 0,0"
         fill="#676767"
         id="path1214" />
      <path
         transform="matrix(1,0,0,-1,184.5273,403.2949)"
         d="m 0,0 c -27.945,0 -55.128,9.061 -84.576,24.54 l 23.034,47.573 c 12.835,-7.931 44.55,-24.922 63.802,-24.922 11.708,0 20.394,7.554 20.394,14.723 0,10.578 -6.425,13.593 -25.676,17.751 l -25.296,5.283 c -31.339,6.418 -45.687,25.673 -45.687,53.239 0,40.018 31.337,66.446 80.043,66.446 38.508,0 58.151,-11.701 77.031,-20.007 l -20.404,-40.78 c -19.249,10.198 -35.11,14.348 -47.945,14.348 -10.191,0 -16.989,-4.529 -16.989,-10.949 0,-6.793 4.529,-12.08 20.391,-15.478 l 24.164,-5.284 C 76.649,118.935 90.61,100.051 90.61,69.469 90.61,27.183 54.362,0 0,0"
         fill="#ffffff"
         id="path1216" />
      <path
         transform="matrix(1,0,0,-1,319.5146,304.1123)"
         d="m 0,0 c -14.359,0 -22.651,-7.172 -22.651,-22.278 0,-14.346 7.931,-21.521 22.276,-21.521 14.728,0 23.401,6.418 23.401,21.521 C 23.026,-7.172 14.353,0 0,0 m 80.802,-2.268 c 3.018,-2.26 9.432,-12.455 9.432,-23.784 0,-37.382 -37.378,-60.029 -80.043,-60.029 H -10.95 c -2.275,-2.643 -4.145,-4.157 -4.145,-6.8 0,-3.778 7.164,-6.035 17.37,-6.035 h 28.306 c 46.067,0 71.361,-21.523 71.361,-56.262 0,-44.172 -32.849,-76.648 -105.719,-76.648 -64.186,0 -89.101,24.926 -89.101,51.354 0,8.302 1.134,18.501 2.636,25.294 h 58.909 c -0.383,-3.773 -0.383,-8.302 -0.383,-11.701 0,-11.333 10.95,-16.616 32.85,-16.616 23.026,0 34.734,9.82 34.734,21.145 0,13.965 -7.555,16.613 -35.493,16.613 h -34.351 c -31.712,0 -50.979,13.216 -50.979,37.757 0,13.588 7.934,29.447 24.168,36.243 -18.88,9.813 -27.942,26.432 -27.942,49.459 0,41.16 34.746,66.832 89.104,66.832 32.85,0 41.163,-8.309 58.526,-8.309 13.97,0 24.919,5.666 33.602,12.838 L 110.249,3.398 c -7.18,-3.773 -20.391,-8.685 -29.447,-5.666"
         fill="#ffffff"
         id="path1218" />
    </g>
  </g>
</svg>
