<svg height="380.62604" viewBox="0 0 518.23071 380.62604" width="518.23071" xmlns="http://www.w3.org/2000/svg" xmlns:xlink="http://www.w3.org/1999/xlink"><clipPath id="a"><path d="m0 792h612v-792h-612z" transform="matrix(1 0 0 -1 0 792)"/></clipPath><g clip-path="url(#a)" transform="translate(-53.166901 -157.8326)"><path d="m0 0c0-105.116-85.203-190.315-190.315-190.315-105.108 0-190.315 85.199-190.315 190.315 0 105.108 85.207 190.311 190.315 190.311 105.112 0 190.315-85.203 190.315-190.311" fill="#43aee3" transform="matrix(1 0 0 -1 433.7969 348.1436)"/><path d="m0 0c-66.652 0-108.319 42.12-108.319 123.121 0 80.081 42.583 127.752 114.335 127.752 29.619 0 49.988-8.787 73.585-28.23l-37.026-48.603c-9.266 9.719-22.68 17.589-33.788 17.589-18.972 0-29.154-10.179-29.154-63.411 0-48.606 5.084-68.504 28.222-68.504 18.062 0 32.874 8.793 43.988 21.284l33.788-47.206c-25.459-25.46-56.484-33.792-85.631-33.792" fill="#676767" transform="matrix(1 0 0 -1 485.7666 477.6904)"/><g fill="#fff"><path d="m0 0c-27.945 0-55.128 9.061-84.576 24.54l23.034 47.573c12.835-7.931 44.55-24.922 63.802-24.922 11.708 0 20.394 7.554 20.394 14.723 0 10.578-6.425 13.593-25.676 17.751l-25.296 5.283c-31.339 6.418-45.687 25.673-45.687 53.239 0 40.018 31.337 66.446 80.043 66.446 38.508 0 58.151-11.701 77.031-20.007l-20.404-40.78c-19.249 10.198-35.11 14.348-47.945 14.348-10.191 0-16.989-4.529-16.989-10.949 0-6.793 4.529-12.08 20.391-15.478l24.164-5.284c34.363-7.548 48.324-26.432 48.324-57.014 0-42.286-36.248-69.469-90.61-69.469" transform="matrix(1 0 0 -1 184.5273 403.2949)"/><path d="m0 0c-14.359 0-22.651-7.172-22.651-22.278 0-14.346 7.931-21.521 22.276-21.521 14.728 0 23.401 6.418 23.401 21.521 0 15.106-8.673 22.278-23.026 22.278m80.802-2.268c3.018-2.26 9.432-12.455 9.432-23.784 0-37.382-37.378-60.029-80.043-60.029h-21.141c-2.275-2.643-4.145-4.157-4.145-6.8 0-3.778 7.164-6.035 17.37-6.035h28.306c46.067 0 71.361-21.523 71.361-56.262 0-44.172-32.849-76.648-105.719-76.648-64.186 0-89.101 24.926-89.101 51.354 0 8.302 1.134 18.501 2.636 25.294h58.909c-.383-3.773-.383-8.302-.383-11.701 0-11.333 10.95-16.616 32.85-16.616 23.026 0 34.734 9.82 34.734 21.145 0 13.965-7.555 16.613-35.493 16.613h-34.351c-31.712 0-50.979 13.216-50.979 37.757 0 13.588 7.934 29.447 24.168 36.243-18.88 9.813-27.942 26.432-27.942 49.459 0 41.16 34.746 66.832 89.104 66.832 32.85 0 41.163-8.309 58.526-8.309 13.97 0 24.919 5.666 33.602 12.838l17.746-45.685c-7.18-3.773-20.391-8.685-29.447-5.666" transform="matrix(1 0 0 -1 319.5146 304.1123)"/></g></g></svg>