<svg xmlns="http://www.w3.org/2000/svg" width="245" height="38.6">
  <path fill="currentColor" d="M45.7 28.5c-2.5 0-4.4-.6-6.1-2.4-1.8-2-1.9-3.7-1.9-6.3v-4.6h-3.2v-5h3.2V3.9h5.2v6.3h3.8v5h-3.8v4.4c0 3.1.6 4.1 3.8 4v4.9h-1zm23.5 0V17.9c0-1.8-.6-3.5-2.7-3.5-1.3 0-2.6 1.2-2.6 2.5v11.5h-5.3V17.3c0-1.6-.9-2.9-2.6-2.9-.8 0-1.7.5-2.2 1.2-.4.8-.4 1.5-.4 2.3v10.4h-5.3v-9.9c0-2.1.1-3.7 1.3-5.6 1.3-2 3.7-3.3 6.2-3.3 2.2 0 4 .8 5.5 2.4 1.7-1.4 3.2-2.3 5.5-2.3 2.5 0 4.8 1.2 6.3 3.4 1.3 1.8 1.4 3.5 1.4 5.5v9.9h-5.1v.1zm17.5.2c-1.7 0-3.2-.5-4.6-1.3v11.1h-5.3V21.2c0-3.1 0-5.3 2.1-7.8 1.8-2.2 4.5-3.6 7.4-3.6 5.2 0 9.4 4.2 9.4 9.4 0 5-3.9 9.5-9 9.5zM86.4 15c-2.4 0-4.3 2-4.3 4.3 0 2.4 1.8 4.4 4.3 4.4 2.4 0 4.2-2 4.2-4.4-.1-2.3-1.9-4.3-4.2-4.3zm26.9 12c-.2.7-.3 1.8-1.2 1.8s-.8-1.1-1-1.7l-3.7-14.3-3.7 14.3c-.2.6-.2 1.7-1 1.7s-1-1.1-1.2-1.7l-4.6-16.8h1.2l4.4 15.9 3.8-14.7c.2-.7.2-1.3 1-1.3s.8.7 1 1.3l3.8 14.7 4.3-15.9h1.3L113.3 27zm14.8 1.8c-5.2 0-9.4-4.2-9.4-9.4 0-5.3 4.2-9.5 9.4-9.5 5.3 0 9.5 4.3 9.5 9.5s-4.3 9.4-9.5 9.4zm0-17.7c-4.5 0-8.1 3.8-8.1 8.2s3.6 8.2 8.1 8.2 8.1-3.7 8.1-8.2c0-4.4-3.6-8.2-8.1-8.2zm13.8 6.6v10.8h-1.3V17.6c0-4.6 1.4-7.4 6.5-7.4v1.3c-4.3 0-5.2 2.4-5.2 6.2zm7.9 10.8V0h1.4v28.5h-1.4zm22.2-4.2c-1.7 2.8-4.8 4.5-8.1 4.5-5.3 0-9.4-4.2-9.4-9.5s4.1-9.4 9.4-9.4c3.6 0 6.3 1.6 8.2 4.7V0h1.3v17.7c-.1 2.4-.1 4.4-1.4 6.6zm-8.1-13.2c-4.5 0-8.1 3.7-8.1 8.2 0 4.4 3.6 8.2 8.1 8.2s8.1-3.7 8.1-8.2c0-4.4-3.6-8.2-8.1-8.2zM192.3 27c-.2.7-.4 1.8-1.2 1.8-.9 0-.9-1.1-1.1-1.7l-3.7-14.3-3.8 14.3c-.2.6-.2 1.7-1 1.7-.9 0-1.1-1.1-1.2-1.7l-4.5-16.8h1.2l4.4 15.9 3.7-14.7c.2-.7.2-1.3 1.1-1.3.8 0 .8.7 1 1.3l3.8 14.7 4.3-15.9h1.2L192.3 27zm8.2-21.3c-.6 0-1.1-.5-1.1-1.1 0-.6.5-1.1 1.1-1.1s1 .398 1 1c0 .6-.5 1.2-1 1.2zm-.7 22.8V10.3h1.3v18.2h-1.3zm22.1-4.2c-1.7 2.8-4.8 4.5-8 4.5-5.4 0-9.5-4.2-9.5-9.5s4.1-9.4 9.4-9.4c3.6 0 6.4 1.6 8.3 4.7V0h1.2v17.7c-.1 2.4-.1 4.4-1.4 6.6zm-8.1-13.2c-4.5 0-8.1 3.7-8.1 8.2 0 4.4 3.6 8.2 8.1 8.2 4.4 0 8-3.7 8-8.2.1-4.4-3.5-8.2-8-8.2zm29.5 8.8h-16c.2 4.3 3.9 7.7 8.2 7.7 3.8 0 6.9-2.4 7.9-6.1h1.4c-1.3 4.4-4.5 7.4-9.3 7.4-5.3 0-9.5-4.2-9.5-9.4 0-5.3 4.3-9.5 9.5-9.5 3.6 0 6.9 2 8.5 5.2.5 1 1 2.7 1 3.7 0 1.1-.9 1-1.7 1zm-7.9-8.8c-4.3 0-7.7 3.3-8.1 7.5h16.3c-.3-4.2-3.9-7.5-8.2-7.5zM23.7 25.8c0-.7.5-1.3 1.3-1.3.5 0 .9.3 1.1.6 1.4-2.2 2.2-4.7 2.2-7.5 0-2.4-.6-4.7-1.7-6.7-.4.3-.9.4-1.4.4-1.4 0-2.5-1.1-2.5-2.5 0-.7.3-1.3.7-1.8-2.5-2.2-5.7-3.5-9.3-3.5C6.3 3.6 0 9.9 0 17.7c0 7.7 6.3 14.1 14.1 14.1 4.2 0 7.9-1.9 10.5-4.8-.5-.1-.9-.5-.9-1.2zm-19.4-4c-.3 0-.6-.3-.6-.6s.3-.6.6-.6.6.3.6.6-.2.6-.6.6zm0-5.3c-.4 0-.7-.3-.7-.8 0-.4.3-.7.7-.7.4 0 .8.3.8.7 0 .4-.3.8-.8.8zm4.2 9.8c-.3 0-.6-.3-.6-.5 0-.4.3-.6.6-.6s.5.2.5.6c0 .3-.3.5-.5.5zm0-4.3c-.5 0-.8-.4-.8-.8 0-.5.4-.8.8-.8.5 0 .8.4.8.8 0 .5-.4.8-.8.8zm0-5.3c-.6 0-1.1-.5-1.1-1.1 0-.6.5-1.1 1.1-1.1s1.1.5 1.1 1.1c0 .7-.5 1.1-1.1 1.1zm0-6.6c-.7 0-1.2-.5-1.2-1.2 0-.6.5-1.1 1.2-1.1.6 0 1.1.5 1.1 1.1 0 .7-.5 1.2-1.1 1.2zm4.6 20.5c-.3 0-.6-.3-.6-.5 0-.4.3-.6.6-.6s.6.3.6.6c-.1.3-.3.5-.6.5zm-.1-4c-.5 0-.8-.3-.8-.8s.4-.9.8-.9c.5 0 .8.4.8.9.1.5-.3.8-.8.8zm.1-4.3c-.6 0-1.2-.5-1.2-1.2 0-.6.6-1.1 1.2-1.1.7 0 1.2.5 1.2 1.1-.1.7-.6 1.2-1.2 1.2zm-.1-5.2c-.7 0-1.4-.7-1.4-1.4s.6-1.4 1.4-1.4c.7 0 1.4.6 1.4 1.4.1.7-.6 1.4-1.4 1.4zm0-6.7c-.8 0-1.5-.7-1.5-1.5s.7-1.5 1.5-1.5 1.5.7 1.5 1.5c.1.8-.6 1.5-1.5 1.5zm5.6 20.5c-.5 0-.8-.4-.8-.9 0-.4.4-.8.8-.8.5 0 .8.4.8.8 0 .5-.4.9-.8.9zm-.1-3.9c-.7 0-1.2-.5-1.2-1.2s.5-1.2 1.2-1.2c.6 0 1.2.5 1.2 1.2s-.5 1.2-1.2 1.2zm0-4.3c-.8 0-1.6-.7-1.6-1.5s.7-1.6 1.6-1.6c.8 0 1.5.7 1.5 1.6.1.8-.6 1.5-1.5 1.5zm0-5.2c-1 0-1.8-.8-1.8-1.8s.8-1.8 1.8-1.8 1.8.9 1.8 1.8c0 1-.8 1.8-1.8 1.8zm0-6.6c-1.1 0-2-.9-2-2s.9-2 2-2 2 .9 2 2c.1 1.1-.9 2-2 2zm6.5 2.7c1.1 0 2 1 2 2 0 1.1-.9 2-2 2s-2-.9-2-2c.1-1 1-2 2-2zm0 5.9c.9 0 1.7.8 1.7 1.7 0 .9-.8 1.7-1.7 1.7s-1.7-.7-1.7-1.7.8-1.7 1.7-1.7z"/>
</svg>
