<svg xmlns="http://www.w3.org/2000/svg" fill="none" viewBox="0 0 120 32">
  <path fill="currentColor" d="M106.358 0h-5.266a.2.2 0 0 0-.198.198v24.881a.2.2 0 0 0 .198.198h5.241a.2.2 0 0 0 .198-.198v-3.666l2.204-2.422 4.053 5.924a.85.85 0 0 0 .693.362h5.852l-6.727-9.706a.42.42 0 0 1 .025-.51l6.628-7.737h-5.786a.83.83 0 0 0-.652.313l-6.405 7.893.14-15.332a.196.196 0 0 0-.198-.198ZM27.655 10.579l-.446-3.082.008.009a.203.203 0 0 0-.198-.173h-4.366a.2.2 0 0 0-.198.197v17.55a.2.2 0 0 0 .198.197h5.315a.2.2 0 0 0 .198-.198v-8.618c.042-3.097 1.635-4.655 3.946-4.655 2.096 0 3.186 1.014 3.186 4.12v9.153a.2.2 0 0 0 .198.198h5.316a.2.2 0 0 0 .198-.198V14.006c0-4.3-2.03-7.151-6.694-7.151-2.897 0-5.283 1.302-6.661 3.724ZM13.607 22.258c-1.339 2.372-3.728 3.53-6.365 3.53-4.853 0-6.909-2.925-6.909-7.045V7.53a.2.2 0 0 1 .199-.197h5.315a.2.2 0 0 1 .198.197v9.665c0 2.669 1.016 3.938 3.186 3.938 2.171 0 3.764-1.59 3.797-4.622V7.539a.2.2 0 0 1 .198-.198h5.283a.2.2 0 0 1 .198.198v17.548a.2.2 0 0 1-.198.198h-4.292a.203.203 0 0 1-.198-.173l-.412-2.854Z"/>
  <path fill="currentColor" fill-rule="evenodd" clip-rule="evenodd" d="M56.825 31.802V23.12c-1.23 1.73-3.145 2.669-5.572 2.669-4.63 0-7.602-3.14-7.602-9.244 0-6.5 3.145-9.68 7.957-9.68 2.642 0 4.664 1.012 5.828 3.105l.404-2.472a.196.196 0 0 1 .198-.164h4.3a.2.2 0 0 1 .199.197v24.272a.2.2 0 0 1-.198.198h-5.316a.2.2 0 0 1-.198-.198ZM52.92 11.09c-2.426 0-3.763 1.516-3.763 5.24s1.27 5.198 3.764 5.198c2.352 0 3.978-1.623 3.978-5.198 0-3.757-1.667-5.24-3.979-5.24ZM84.022 16.288c0-6.5-3.112-9.425-9.443-9.425-5.934 0-9.442 2.999-9.442 9.425 0 6.427 3.252 9.5 9.442 9.5 6.191 0 9.443-3 9.443-9.5Zm-13.495.033c0-3.715 1.197-5.198 4.052-5.198 2.823 0 4.02 1.441 4.02 5.198 0 3.757-1.23 5.273-4.02 5.273-2.79 0-4.052-1.557-4.052-5.273Z" />
  <path fill="currentColor" d="M87.11 7.333h4.358c.099 0 .181.074.198.173l.445 3.402c1.205-2.578 3.475-4.045 6.249-4.045a.2.2 0 0 1 .198.198l.033 5.01a.2.2 0 0 1-.215.197c-3.871-.223-5.72 2.109-5.753 5.899v6.912a.2.2 0 0 1-.198.198h-5.316a.2.2 0 0 1-.198-.198V7.53a.2.2 0 0 1 .198-.197Z" />
</svg>
