<svg height="66.981" viewBox="0 0 157.5954 66.980667" width="157.6" xmlns="http://www.w3.org/2000/svg"><path d="m33.289.90165c-8.411.14187-17.3 4.7155-22.77 10.695-5.0797 5.553-8.4915 12.802-9.3865 20.287-.86995 7.274.9681 15.59 7.8418 19.403 3.37 1.8425 7.0948 1.1848 10.371-.58398h6.7988l-.24219 15.174h28.537l3.4238-6.4629c1.325 2.245 3.3773 4.0309 5.791 5.0859 3.675 1.605 7.7336 1.3672 11.652 1.3672h20.35l.5918-1.8516c2.5638 1.31 5.5783 1.8066 8.5508 1.8516 3.3312.01125 6.6609 0 9.9922 0 4.3925-.01625 8.7819-.83609 12.422-3.4336 3.285-2.3438 5.9612-5.6765 7.1699-9.584l8.793-27.281 13.352-17.766h-107.89c-4.061-5.0204-9.594-6.9971-15.348-6.9z" fill="#ffba00"/><path d="m32.67 4.3861c-8.116.1109-17.968 5.2168-23.793 15.266-6.0362 10.408-6.575 24.019 1.7813 28.621 2.5862 1.425 6.4938.14227 9.1875-1.959 7.6587-5.9825 7.9655-15.352 5.7617-18.594-.015 1.9262-4.0843 12.672-8.3418 11.602-3.435-.86375-.4882-9.7102 4.0605-15.816 1.2062-1.6312 4.4787-5.9175 7.1387-5.25 1.3125.32875 1.605 4.9032 1.5312 8.5332-.10875 5.3812-.58398 35.633-.58398 35.633h22.949l8.8809-16.76-.45898 1.4414c-.82875 2.7312-1.5648 5.5712-.83984 8.4199.79875 3.14 3.2979 5.4068 6.3691 6.2793 2.3338.665 4.2908.61914 6.207.61914h20.621l1.4102-4.4102c.11875.19125.24602.38211.38476.56836 2.3612 3.1562 6.2144 3.7943 9.9082 3.8418h9.9473c3.4612-.0125 6.8199-.47719 9.7949-2.3672 3.1025-1.9688 5.3122-4.9775 6.5547-8.375l8.9375-27.715 9.541-12.707h-98.303l.80664 9.7109-2.3535 4.4492c.04125-6.375-.44125-12.96-5.7188-17.355-2.13-1.7725-4.5157-3.2603-9.7832-3.6328-.52391-.037031-1.0566-.050365-1.5977-.042969z"/><path d="m31.17 8.1426v.0019c-2.754-.0562-5.507.6807-8.01 1.9575 9.788-1.5554 11.284 10.581 11.16 15.865-.108 4.609-.533 32.15-.533 32.15h15.986l22.549-42.556h-16.326l.522 6.306-11.327 21.406c.08-5.255.256-16.614.305-18.802.051-8.523-1.914-15.074-13.144-16.254-.393-.0413-.789-.0664-1.182-.0744zm54.932 7.4194c-1.747 0-3.435.001-5.254.418-6.033 1.519-7.615 6.301-8.573 9.288l-7.379 23.144c-.908 2.864-2.418 7.77 2.647 9.266 1.551.442 3.204.441 4.984.441h17.477l5.006-15.68h-10.383l-2.107 6.813h-6.319l7.916-24.824h6.244l-1.55 4.9h10.373l4.386-13.766h-17.466zm20.188 0 .74 6.407-8.257 25.906c-1.198 3.735-1.898 6.319-.242 8.307 1.529 1.817 4.039 1.877 6.319 1.937h9.94c2.71 0 6.22-.06 9.33-3.195 2.37-2.358 3.38-5.671 4.22-8.33l7.85-24.625 4.82-6.407h-14.35l-10.73 33.688h-5.97l10.74-33.688zm-88.71 2.731c-2.56.134-5.795 2.816-5.795 2.816-3.5899 6.228-4.967 13.443-3.3495 18.534.9238 2.905 4.1605 3.684 6.6975 2.144-.398-.199-.778-.451-1.143-.767-3.364-2.87-.174-12.296 4.783-18.959.504-.678 1.008-1.297 1.512-1.877-.517-1.485-1.541-1.952-2.705-1.891zm6.453 18.602c-3.865 4.798-7.626 7.442-10.963 8.347 2.049 1.185 8.203.618 10.963-8.347z" fill="#fff" transform="matrix(.99999 0 0 .99999 -.001907 0)"/></svg>